Coordinates
version=1
nRows=14
nColumns=63
inDegrees=yes

Units are S.I. units (second, meters, Newtons, ...)
If the header above contains a line with 'inDegrees', this indicates whether rotational values are in degrees (yes) or radians (no).

endheader
time	pelvis_tilt	pelvis_list	pelvis_rotation	pelvis_tx	pelvis_ty	pelvis_tz	hip_flexion_r	hip_adduction_r	hip_rotation_r	knee_angle_r	knee_angle_r_beta	ankle_angle_r	subtalar_angle_r	mtp_angle_r	hip_flexion_l	hip_adduction_l	hip_rotation_l	knee_angle_l	knee_angle_l_beta	ankle_angle_l	subtalar_angle_l	mtp_angle_l	L5_S1_Flex_Ext	L5_S1_Lat_Bending	L5_S1_axial_rotation	L4_L5_Flex_Ext	L4_L5_Lat_Bending	L4_L5_axial_rotation	L3_L4_Flex_Ext	L3_L4_Lat_Bending	L3_L4_axial_rotation	L2_L3_Flex_Ext	L2_L3_Lat_Bending	L2_L3_axial_rotation	L1_L2_Flex_Ext	L1_L2_Lat_Bending	L1_L2_axial_rotation	L1_T12_Flex_Ext	L1_T12_Lat_Bending	L1_T12_axial_rotation	Abs_r3	Abs_r2	Abs_r1	Abs_t1	Abs_t2	neck_flexion	neck_bending	neck_rotation	arm_flex_r	arm_add_r	arm_rot_r	elbow_flex_r	pro_sup_r	wrist_flex_r	wrist_dev_r	arm_flex_l	arm_add_l	arm_rot_l	elbow_flex_l	pro_sup_l	wrist_flex_l	wrist_dev_l
0.000000	-0.436182	-4.090194	88.533893	0.147667	1.105572	0.450661	4.718907	-3.073666	-6.632999	10.482838	0.182960	35.109068	18.085435	0.000000	5.997270	2.316386	3.435483	9.727639	0.169779	34.058529	-4.096686	0.000000	-0.301809	-0.158988	0.835371	-0.560489	-0.211454	0.887581	-0.495842	-0.386563	0.887581	-0.344937	-0.386563	0.730949	-0.280260	-0.324208	0.678739	-0.172454	-0.246272	0.626528	-2.155791	-1.798501	4.646081	0.000000	0.000000	22.494024	1.658710	6.109354	11.299204	-11.250234	94.532466	8.123491	2.192238	0.358316	-13.693791	13.683904	-9.028414	143.320060	1.727245	3.956402	-9.183897	-8.782226
0.020833	-0.327032	-4.015462	89.058790	0.146446	1.106169	0.448160	4.230069	-3.030609	-7.171971	10.137033	0.176925	34.936579	17.903581	0.000000	5.514387	2.362150	5.314549	9.160332	0.159878	33.592960	-5.549483	0.000000	-0.284896	-0.138454	0.776405	-0.529080	-0.184144	0.824930	-0.468056	-0.336638	0.824930	-0.325608	-0.336638	0.679354	-0.264554	-0.282336	0.630829	-0.162790	-0.214466	0.582304	-2.034984	-1.566225	4.318130	0.000000	0.000000	22.505025	1.599801	6.025401	11.029982	-11.354509	94.624165	7.938510	2.091182	0.312164	-13.923985	13.670233	-8.821133	143.510741	1.717448	3.866649	-9.745175	-9.106373
0.041667	-0.221347	-3.954456	89.488996	0.145419	1.106678	0.446277	3.843302	-2.979418	-7.606298	9.858774	0.172068	34.787178	17.758581	0.000000	5.145130	2.389388	6.880632	8.721711	0.152223	33.180599	-6.804748	0.000000	-0.273148	-0.119292	0.722339	-0.507262	-0.158658	0.767486	-0.448754	-0.290046	0.767486	-0.312180	-0.290046	0.632047	-0.253645	-0.243260	0.586901	-0.156077	-0.184783	0.541755	-1.951066	-1.349451	4.017435	0.000000	0.000000	22.513636	1.588068	6.025663	10.827537	-11.452049	94.674720	7.819826	2.019693	0.268975	-14.104535	13.665858	-8.637760	143.500922	1.699568	3.751132	-10.203470	-9.440469
0.062500	-0.120277	-3.905828	89.830377	0.144573	1.107106	0.444956	3.550347	-2.922378	-7.944024	9.643655	0.168314	34.659243	17.647472	0.000000	4.878588	2.400746	8.156251	8.399560	0.146600	32.818559	-7.875355	0.000000	-0.266089	-0.101631	0.673773	-0.494154	-0.135169	0.715884	-0.437157	-0.247104	0.715884	-0.304113	-0.247104	0.589551	-0.247090	-0.207245	0.547441	-0.152043	-0.157426	0.505330	-1.900646	-1.149665	3.747324	0.000000	0.000000	22.520238	1.616812	6.094089	10.686130	-11.542900	94.691020	7.758716	1.974344	0.228874	-14.239570	13.671319	-8.476711	143.313886	1.675076	3.613988	-10.565542	-9.782349
0.083333	-0.024968	-3.868235	90.088796	0.143893	1.107460	0.444140	3.342943	-2.861772	-8.193195	9.487273	0.165584	34.551153	17.567290	0.000000	4.703854	2.398871	9.163927	8.181662	0.142797	32.503953	-8.774180	0.000000	-0.263245	-0.085602	0.631304	-0.488872	-0.113851	0.670760	-0.432485	-0.208134	0.670760	-0.300862	-0.208134	0.552391	-0.244449	-0.174560	0.512934	-0.150418	-0.132598	0.473478	-1.880330	-0.968351	3.511121	0.000000	0.000000	22.525207	1.679330	6.214625	10.600021	-11.627109	94.679951	7.746462	1.951708	0.191987	-14.333222	13.687154	-8.336403	142.972916	1.645442	3.459355	-10.838148	-10.129845
0.104167	0.063433	-3.840330	90.270119	0.143366	1.107746	0.443777	3.212832	-2.799886	-8.361858	9.385224	0.163803	34.461288	17.515073	0.000000	4.610018	2.386410	9.926181	8.055800	0.140600	32.233893	-9.514097	0.000000	-0.264140	-0.071338	0.595529	-0.490534	-0.094880	0.632750	-0.433956	-0.173452	0.632750	-0.301886	-0.173452	0.521088	-0.245280	-0.145473	0.483867	-0.150930	-0.110503	0.446647	-1.886726	-0.806995	3.312154	0.000000	0.000000	22.528924	1.768923	6.371220	10.563470	-11.704723	94.648399	7.774340	1.948355	0.158438	-14.389620	13.713903	-8.215253	142.501295	1.612135	3.291369	-11.028047	-10.480791
0.125000	0.143778	-3.820768	90.380210	0.142979	1.107971	0.443810	3.151754	-2.739002	-8.458057	9.333104	0.162893	34.388028	17.487857	0.000000	4.586173	2.366010	10.465534	8.009758	0.139797	32.005492	-10.107983	0.000000	-0.268300	-0.058970	0.567048	-0.498260	-0.078430	0.602488	-0.440790	-0.143380	0.602488	-0.306640	-0.143380	0.496167	-0.249143	-0.120252	0.460726	-0.153307	-0.091345	0.425286	-1.916439	-0.667082	3.153749	0.000000	0.000000	22.531766	1.878888	6.547821	10.570739	-11.775789	94.603253	7.833631	1.960859	0.128352	-14.412894	13.752105	-8.111678	141.922305	1.576627	3.114170	-11.141998	-10.833019
0.145833	0.214919	-3.808204	90.424933	0.142717	1.108141	0.444184	3.151448	-2.681406	-8.489839	9.326507	0.162778	34.329751	17.482680	0.000000	4.621408	2.340317	10.804506	8.031318	0.140173	31.815861	-10.568711	0.000000	-0.275249	-0.048629	0.546457	-0.511165	-0.064676	0.580611	-0.452207	-0.118236	0.580611	-0.314582	-0.118236	0.478150	-0.255596	-0.099163	0.443997	-0.157277	-0.075326	0.409843	-1.966077	-0.550096	3.039232	0.000000	0.000000	22.534114	2.002524	6.728377	10.616087	-11.840353	94.551400	7.915613	1.985791	0.101855	-14.407174	13.802299	-8.024096	141.259229	1.540386	2.931893	-11.186758	-11.184364
0.166667	0.275709	-3.801290	90.410155	0.142568	1.108262	0.444844	3.203655	-2.629381	-8.465248	9.361030	0.163381	34.284837	17.496579	0.000000	4.704816	2.311980	10.965618	8.108263	0.141516	31.662115	-10.909158	0.000000	-0.284513	-0.040445	0.534356	-0.528369	-0.053792	0.567754	-0.467426	-0.098338	0.567754	-0.325170	-0.098338	0.467562	-0.264199	-0.082476	0.434164	-0.162571	-0.062650	0.400767	-2.032248	-0.457524	2.971929	0.000000	0.000000	22.536345	2.133131	6.896835	10.693775	-11.898463	94.499726	8.011566	2.019724	0.079072	-14.376590	13.865025	-7.950922	140.535351	1.504883	2.748677	-11.169087	-11.532658
0.187500	0.325002	-3.798683	90.341738	0.142518	1.108342	0.445736	3.300116	-2.585212	-8.392332	9.432270	0.164624	34.251666	17.526589	0.000000	4.825487	2.283645	10.971391	8.228378	0.143612	31.541366	-11.142199	0.000000	-0.295616	-0.034551	0.531342	-0.548989	-0.045953	0.564551	-0.485668	-0.084008	0.564551	-0.337860	-0.084008	0.464925	-0.274509	-0.070457	0.431716	-0.168915	-0.053520	0.398507	-2.111557	-0.390849	2.955167	0.000000	0.000000	22.538839	2.264006	7.037143	10.798064	-11.950166	94.455118	8.112768	2.059230	0.060127	-14.325272	13.940822	-7.890574	139.773953	1.471589	2.568658	-11.095742	-11.875734
0.208333	0.361648	-3.799037	90.225549	0.142553	1.108387	0.446803	3.432570	-2.551183	-8.279134	9.535820	0.166431	34.228617	17.569750	0.000000	4.972512	2.257958	10.844345	8.379444	0.146249	31.450725	-11.280708	0.000000	-0.308084	-0.031078	0.538014	-0.572143	-0.041333	0.571640	-0.506151	-0.075563	0.571640	-0.352109	-0.075563	0.470762	-0.286087	-0.063374	0.437136	-0.176039	-0.048140	0.403510	-2.200612	-0.351558	2.992272	0.000000	0.000000	22.541974	2.388450	7.133248	10.923215	-11.995508	94.424465	8.210498	2.100881	0.045145	-14.257350	14.030230	-7.841469	138.998318	1.441972	2.395975	-10.973482	-12.211426
0.229167	0.377822	-3.799737	90.085944	0.142615	1.108415	0.447939	3.580816	-2.540454	-8.175505	9.659286	0.168586	34.209861	17.623496	0.000000	5.121047	2.251218	10.708531	8.532311	0.148917	31.342827	-11.445600	0.000000	-0.321190	-0.030449	0.558019	-0.596482	-0.040497	0.592895	-0.527683	-0.074033	0.592895	-0.367088	-0.074033	0.488267	-0.298257	-0.062091	0.453390	-0.183528	-0.047165	0.418514	-2.294228	-0.344440	3.103534	0.000000	0.000000	22.529461	2.448093	7.087112	11.031441	-12.078950	93.869377	8.427146	2.161620	0.102722	-14.170533	14.160158	-7.790893	138.328227	1.425109	2.216256	-10.808229	-12.495199
0.250000	0.372100	-3.799756	89.896375	0.142753	1.108428	0.449117	3.750313	-2.552818	-8.042710	9.819533	0.171383	34.187708	17.685475	0.000000	5.267361	2.258017	10.468420	8.677101	0.151444	31.275990	-11.505205	0.000000	-0.334467	-0.033958	0.591592	-0.621138	-0.045164	0.628567	-0.549495	-0.082566	0.628567	-0.382262	-0.082566	0.517643	-0.310586	-0.069247	0.480669	-0.191114	-0.052601	0.443694	-2.389062	-0.384141	3.290260	0.000000	0.000000	22.527895	2.536449	6.943506	11.150549	-12.141489	93.346058	8.605071	2.196163	0.199326	-14.089069	14.281686	-7.759014	137.772808	1.403877	2.086579	-10.631245	-12.803937
0.270833	0.340249	-3.789916	89.680971	0.142945	1.108447	0.450250	3.913132	-2.591722	-7.901938	9.989117	0.174343	34.169507	17.752757	0.000000	5.380658	2.284558	10.164593	8.779922	0.153239	31.232586	-11.471663	0.000000	-0.348266	-0.042153	0.635235	-0.646765	-0.056063	0.674937	-0.572166	-0.102490	0.674937	-0.398033	-0.102490	0.555831	-0.323400	-0.085958	0.516128	-0.198999	-0.065295	0.476426	-2.487630	-0.476841	3.532986	0.000000	0.000000	22.519653	2.650058	6.722719	11.277025	-12.157573	93.109914	8.653362	2.198086	0.323260	-14.011897	14.399859	-7.748732	137.322980	1.390848	2.005873	-10.469811	-13.164148
